<!DOCTYPE svg PUBLIC "-//W3C//DTD SVG 1.1//EN" "http://www.w3.org/Graphics/SVG/1.1/DTD/svg11.dtd">
<!-- Uploaded to: SVG Repo, www.svgrepo.com, Transformed by: SVG Repo Mixer Tools -->
<svg width="800px" height="800px" viewBox="0 0 48.00 48.00" xmlns="http://www.w3.org/2000/svg" fill="#2463eb" stroke="#2463eb" stroke-width="1.008" transform="rotate(0)">
<g id="SVGRepo_bgCarrier" stroke-width="0"/>
<g id="SVGRepo_tracerCarrier" stroke-linecap="round" stroke-linejoin="round" stroke="#CCCCCC" stroke-width="0.4800000000000001">
<defs>
<style>.a,.b{fill:none;stroke:#2463eb;}.a{stroke-miterlimit:10;}.b{stroke-linecap:round;stroke-linejoin:round;}</style>
</defs>
<path class="a" d="M15.24,22.65a2.2,2.2,0,1,1,2.19-2.19A2.19,2.19,0,0,1,15.24,22.65ZM21,18.89a3,3,0,1,1,3-3A3,3,0,0,1,21,18.89Z"/>
<circle class="b" cx="24.01" cy="24" r="15.73"/>
<line class="b" x1="24" y1="2.5" x2="24" y2="8.27"/>
<line class="b" x1="45.51" y1="23.98" x2="39.75" y2="23.98"/>
<line class="b" x1="24.03" y1="45.5" x2="24.03" y2="39.73"/>
<line class="b" x1="2.51" y1="24.02" x2="8.28" y2="24.02"/>
<line class="b" x1="35.14" y1="12.88" x2="37.18" y2="10.84"/>
<line class="b" x1="35.14" y1="35.12" x2="37.18" y2="37.16"/>
<line class="b" x1="12.89" y1="35.12" x2="10.85" y2="37.16"/>
<line class="b" x1="12.89" y1="12.88" x2="10.85" y2="10.84"/>
</g>
<g id="SVGRepo_iconCarrier">
<defs>
<style>.a,.b{fill:none;stroke:#2463eb;}.a{stroke-miterlimit:10;}.b{stroke-linecap:round;stroke-linejoin:round;}</style>
</defs>
<path class="a" d="M15.24,22.65a2.2,2.2,0,1,1,2.19-2.19A2.19,2.19,0,0,1,15.24,22.65ZM21,18.89a3,3,0,1,1,3-3A3,3,0,0,1,21,18.89Z"/>
<circle class="b" cx="24.01" cy="24" r="15.73"/>
<line class="b" x1="24" y1="2.5" x2="24" y2="8.27"/>
<line class="b" x1="45.51" y1="23.98" x2="39.75" y2="23.98"/>
<line class="b" x1="24.03" y1="45.5" x2="24.03" y2="39.73"/>
<line class="b" x1="2.51" y1="24.02" x2="8.28" y2="24.02"/>
<line class="b" x1="35.14" y1="12.88" x2="37.18" y2="10.84"/>
<line class="b" x1="35.14" y1="35.12" x2="37.18" y2="37.16"/>
<line class="b" x1="12.89" y1="35.12" x2="10.85" y2="37.16"/>
<line class="b" x1="12.89" y1="12.88" x2="10.85" y2="10.84"/>
</g>
</svg>