<svg xmlns="http://www.w3.org/2000/svg" width="2835" height="1460" style="cursor: move;"><g transform="translate(-611.7697287448789,-290.1310068334669) scale(1.5157165665103987)"><path class="link" marker-end="" d="M1116,354.5C1207,354.5 1207,544.5 1298,544.5" style="stroke-width: 0.5; stroke-opacity: 1; stroke: rgb(176, 199, 248); fill: none;"></path><path class="link" marker-end="" d="M1116,354.5C1207,354.5 1207,573.5 1298,573.5" style="stroke-width: 0.5; stroke-opacity: 1; stroke: rgb(230, 237, 253); fill: none;"></path><path class="link" marker-end="" d="M1116,354.5C1207,354.5 1207,602.5 1298,602.5" style="stroke-width: 0.5; stroke-opacity: 1; stroke: rgb(52, 110, 236); fill: none;"></path><path class="link" marker-end="" d="M1116,354.5C1207,354.5 1207,631.5 1298,631.5" style="stroke-width: 0.5; stroke-opacity: 1; stroke: rgb(40, 102, 235); fill: none;"></path><path class="link" marker-end="" d="M1116,354.5C1207,354.5 1207,660.5 1298,660.5" style="stroke-width: 0.5; stroke-opacity: 1; stroke: rgb(235, 241, 253); fill: none;"></path><path class="link" marker-end="" d="M1116,354.5C1207,354.5 1207,689.5 1298,689.5" style="stroke-width: 0.5; stroke-opacity: 1; stroke: rgb(106, 149, 241); fill: none;"></path><path class="link" marker-end="" d="M1116,354.5C1207,354.5 1207,718.5 1298,718.5" style="stroke-width: 0.5; stroke-opacity: 1; stroke: rgb(155, 184, 246); fill: none;"></path><path class="link" marker-end="" d="M1116,354.5C1207,354.5 1207,747.5 1298,747.5" style="stroke-width: 0.5; stroke-opacity: 1; stroke: rgb(217, 228, 252); fill: none;"></path><path class="link" marker-end="" d="M1116,354.5C1207,354.5 1207,776.5 1298,776.5" style="stroke-width: 0.5; stroke-opacity: 1; stroke: rgb(81, 131, 239); fill: none;"></path><path class="link" marker-end="" d="M1116,407.5C1207,407.5 1207,544.5 1298,544.5" style="stroke-width: 0.5; stroke-opacity: 1; stroke: rgb(126, 163, 243); fill: none;"></path><path class="link" marker-end="" d="M1116,407.5C1207,407.5 1207,573.5 1298,573.5" style="stroke-width: 0.5; stroke-opacity: 1; stroke: rgb(115, 155, 242); fill: none;"></path><path class="link" marker-end="" d="M1116,407.5C1207,407.5 1207,602.5 1298,602.5" style="stroke-width: 0.5; stroke-opacity: 1; stroke: rgb(92, 139, 240); fill: none;"></path><path class="link" marker-end="" d="M1116,407.5C1207,407.5 1207,631.5 1298,631.5" style="stroke-width: 0.5; stroke-opacity: 1; stroke: rgb(240, 244, 254); fill: none;"></path><path class="link" marker-end="" d="M1116,407.5C1207,407.5 1207,660.5 1298,660.5" style="stroke-width: 0.5; stroke-opacity: 1; stroke: rgb(227, 235, 252); fill: none;"></path><path class="link" marker-end="" d="M1116,407.5C1207,407.5 1207,689.5 1298,689.5" style="stroke-width: 0.5; stroke-opacity: 1; stroke: rgb(141, 174, 245); fill: none;"></path><path class="link" marker-end="" d="M1116,407.5C1207,407.5 1207,718.5 1298,718.5" style="stroke-width: 0.5; stroke-opacity: 1; stroke: rgb(197, 213, 250); fill: none;"></path><path class="link" marker-end="" d="M1116,407.5C1207,407.5 1207,747.5 1298,747.5" style="stroke-width: 0.5; stroke-opacity: 1; stroke: rgb(71, 124, 238); fill: none;"></path><path class="link" marker-end="" d="M1116,407.5C1207,407.5 1207,776.5 1298,776.5" style="stroke-width: 0.5; stroke-opacity: 1; stroke: rgb(120, 159, 243); fill: none;"></path><path class="link" marker-end="" d="M1116,460.5C1207,460.5 1207,544.5 1298,544.5" style="stroke-width: 0.5; stroke-opacity: 1; stroke: rgb(234, 240, 253); fill: none;"></path><path class="link" marker-end="" d="M1116,460.5C1207,460.5 1207,573.5 1298,573.5" style="stroke-width: 0.5; stroke-opacity: 1; stroke: rgb(82, 132, 239); fill: none;"></path><path class="link" marker-end="" d="M1116,460.5C1207,460.5 1207,602.5 1298,602.5" style="stroke-width: 0.5; stroke-opacity: 1; stroke: rgb(36, 99, 235); fill: none;"></path><path class="link" marker-end="" d="M1116,460.5C1207,460.5 1207,631.5 1298,631.5" style="stroke-width: 0.5; stroke-opacity: 1; stroke: rgb(126, 163, 243); fill: none;"></path><path class="link" marker-end="" d="M1116,460.5C1207,460.5 1207,660.5 1298,660.5" style="stroke-width: 0.5; stroke-opacity: 1; stroke: rgb(250, 251, 255); fill: none;"></path><path class="link" marker-end="" d="M1116,460.5C1207,460.5 1207,689.5 1298,689.5" style="stroke-width: 0.5; stroke-opacity: 1; stroke: rgb(76, 128, 239); fill: none;"></path><path class="link" marker-end="" d="M1116,460.5C1207,460.5 1207,718.5 1298,718.5" style="stroke-width: 0.5; stroke-opacity: 1; stroke: rgb(255, 255, 255); fill: none;"></path><path class="link" marker-end="" d="M1116,460.5C1207,460.5 1207,747.5 1298,747.5" style="stroke-width: 0.5; stroke-opacity: 1; stroke: rgb(195, 212, 249); fill: none;"></path><path class="link" marker-end="" d="M1116,460.5C1207,460.5 1207,776.5 1298,776.5" style="stroke-width: 0.5; stroke-opacity: 1; stroke: rgb(138, 171, 244); fill: none;"></path><path class="link" marker-end="" d="M1116,513.5C1207,513.5 1207,544.5 1298,544.5" style="stroke-width: 0.5; stroke-opacity: 1; stroke: rgb(154, 183, 246); fill: none;"></path><path class="link" marker-end="" d="M1116,513.5C1207,513.5 1207,573.5 1298,573.5" style="stroke-width: 0.5; stroke-opacity: 1; stroke: rgb(195, 212, 250); fill: none;"></path><path class="link" marker-end="" d="M1116,513.5C1207,513.5 1207,602.5 1298,602.5" style="stroke-width: 0.5; stroke-opacity: 1; stroke: rgb(218, 229, 252); fill: none;"></path><path class="link" marker-end="" d="M1116,513.5C1207,513.5 1207,631.5 1298,631.5" style="stroke-width: 0.5; stroke-opacity: 1; stroke: rgb(178, 200, 248); fill: none;"></path><path class="link" marker-end="" d="M1116,513.5C1207,513.5 1207,660.5 1298,660.5" style="stroke-width: 0.5; stroke-opacity: 1; stroke: rgb(208, 221, 251); fill: none;"></path><path class="link" marker-end="" d="M1116,513.5C1207,513.5 1207,689.5 1298,689.5" style="stroke-width: 0.5; stroke-opacity: 1; stroke: rgb(79, 130, 239); fill: none;"></path><path class="link" marker-end="" d="M1116,513.5C1207,513.5 1207,718.5 1298,718.5" style="stroke-width: 0.5; stroke-opacity: 1; stroke: rgb(63, 118, 237); fill: none;"></path><path class="link" marker-end="" d="M1116,513.5C1207,513.5 1207,747.5 1298,747.5" style="stroke-width: 0.5; stroke-opacity: 1; stroke: rgb(139, 172, 244); fill: none;"></path><path class="link" marker-end="" d="M1116,513.5C1207,513.5 1207,776.5 1298,776.5" style="stroke-width: 0.5; stroke-opacity: 1; stroke: rgb(247, 250, 254); fill: none;"></path><path class="link" marker-end="" d="M1116,566.5C1207,566.5 1207,544.5 1298,544.5" style="stroke-width: 0.5; stroke-opacity: 1; stroke: rgb(72, 125, 238); fill: none;"></path><path class="link" marker-end="" d="M1116,566.5C1207,566.5 1207,573.5 1298,573.5" style="stroke-width: 0.5; stroke-opacity: 1; stroke: rgb(41, 103, 235); fill: none;"></path><path class="link" marker-end="" d="M1116,566.5C1207,566.5 1207,602.5 1298,602.5" style="stroke-width: 0.5; stroke-opacity: 1; stroke: rgb(232, 239, 253); fill: none;"></path><path class="link" marker-end="" d="M1116,566.5C1207,566.5 1207,631.5 1298,631.5" style="stroke-width: 0.5; stroke-opacity: 1; stroke: rgb(173, 197, 248); fill: none;"></path><path class="link" marker-end="" d="M1116,566.5C1207,566.5 1207,660.5 1298,660.5" style="stroke-width: 0.5; stroke-opacity: 1; stroke: rgb(198, 215, 250); fill: none;"></path><path class="link" marker-end="" d="M1116,566.5C1207,566.5 1207,689.5 1298,689.5" style="stroke-width: 0.5; stroke-opacity: 1; stroke: rgb(74, 126, 238); fill: none;"></path><path class="link" marker-end="" d="M1116,566.5C1207,566.5 1207,718.5 1298,718.5" style="stroke-width: 0.5; stroke-opacity: 1; stroke: rgb(235, 241, 253); fill: none;"></path><path class="link" marker-end="" d="M1116,566.5C1207,566.5 1207,747.5 1298,747.5" style="stroke-width: 0.5; stroke-opacity: 1; stroke: rgb(200, 215, 250); fill: none;"></path><path class="link" marker-end="" d="M1116,566.5C1207,566.5 1207,776.5 1298,776.5" style="stroke-width: 0.5; stroke-opacity: 1; stroke: rgb(138, 172, 244); fill: none;"></path><path class="link" marker-end="" d="M1116,619.5C1207,619.5 1207,544.5 1298,544.5" style="stroke-width: 0.5; stroke-opacity: 1; stroke: rgb(71, 124, 238); fill: none;"></path><path class="link" marker-end="" d="M1116,619.5C1207,619.5 1207,573.5 1298,573.5" style="stroke-width: 0.5; stroke-opacity: 1; stroke: rgb(238, 243, 253); fill: none;"></path><path class="link" marker-end="" d="M1116,619.5C1207,619.5 1207,602.5 1298,602.5" style="stroke-width: 0.5; stroke-opacity: 1; stroke: rgb(254, 254, 255); fill: none;"></path><path class="link" marker-end="" d="M1116,619.5C1207,619.5 1207,631.5 1298,631.5" style="stroke-width: 0.5; stroke-opacity: 1; stroke: rgb(229, 236, 253); fill: none;"></path><path class="link" marker-end="" d="M1116,619.5C1207,619.5 1207,660.5 1298,660.5" style="stroke-width: 0.5; stroke-opacity: 1; stroke: rgb(145, 176, 245); fill: none;"></path><path class="link" marker-end="" d="M1116,619.5C1207,619.5 1207,689.5 1298,689.5" style="stroke-width: 0.5; stroke-opacity: 1; stroke: rgb(227, 235, 252); fill: none;"></path><path class="link" marker-end="" d="M1116,619.5C1207,619.5 1207,718.5 1298,718.5" style="stroke-width: 0.5; stroke-opacity: 1; stroke: rgb(138, 171, 244); fill: none;"></path><path class="link" marker-end="" d="M1116,619.5C1207,619.5 1207,747.5 1298,747.5" style="stroke-width: 0.5; stroke-opacity: 1; stroke: rgb(151, 181, 245); fill: none;"></path><path class="link" marker-end="" d="M1116,619.5C1207,619.5 1207,776.5 1298,776.5" style="stroke-width: 0.5; stroke-opacity: 1; stroke: rgb(202, 217, 250); fill: none;"></path><path class="link" marker-end="" d="M1116,672.5C1207,672.5 1207,544.5 1298,544.5" style="stroke-width: 0.5; stroke-opacity: 1; stroke: rgb(72, 125, 238); fill: none;"></path><path class="link" marker-end="" d="M1116,672.5C1207,672.5 1207,573.5 1298,573.5" style="stroke-width: 0.5; stroke-opacity: 1; stroke: rgb(170, 194, 247); fill: none;"></path><path class="link" marker-end="" d="M1116,672.5C1207,672.5 1207,602.5 1298,602.5" style="stroke-width: 0.5; stroke-opacity: 1; stroke: rgb(115, 155, 242); fill: none;"></path><path class="link" marker-end="" d="M1116,672.5C1207,672.5 1207,631.5 1298,631.5" style="stroke-width: 0.5; stroke-opacity: 1; stroke: rgb(187, 207, 249); fill: none;"></path><path class="link" marker-end="" d="M1116,672.5C1207,672.5 1207,660.5 1298,660.5" style="stroke-width: 0.5; stroke-opacity: 1; stroke: rgb(51, 109, 236); fill: none;"></path><path class="link" marker-end="" d="M1116,672.5C1207,672.5 1207,689.5 1298,689.5" style="stroke-width: 0.5; stroke-opacity: 1; stroke: rgb(172, 196, 247); fill: none;"></path><path class="link" marker-end="" d="M1116,672.5C1207,672.5 1207,718.5 1298,718.5" style="stroke-width: 0.5; stroke-opacity: 1; stroke: rgb(179, 201, 248); fill: none;"></path><path class="link" marker-end="" d="M1116,672.5C1207,672.5 1207,747.5 1298,747.5" style="stroke-width: 0.5; stroke-opacity: 1; stroke: rgb(167, 193, 247); fill: none;"></path><path class="link" marker-end="" d="M1116,672.5C1207,672.5 1207,776.5 1298,776.5" style="stroke-width: 0.5; stroke-opacity: 1; stroke: rgb(44, 105, 236); fill: none;"></path><path class="link" marker-end="" d="M1116,725.5C1207,725.5 1207,544.5 1298,544.5" style="stroke-width: 0.5; stroke-opacity: 1; stroke: rgb(152, 182, 246); fill: none;"></path><path class="link" marker-end="" d="M1116,725.5C1207,725.5 1207,573.5 1298,573.5" style="stroke-width: 0.5; stroke-opacity: 1; stroke: rgb(48, 107, 236); fill: none;"></path><path class="link" marker-end="" d="M1116,725.5C1207,725.5 1207,602.5 1298,602.5" style="stroke-width: 0.5; stroke-opacity: 1; stroke: rgb(50, 109, 236); fill: none;"></path><path class="link" marker-end="" d="M1116,725.5C1207,725.5 1207,631.5 1298,631.5" style="stroke-width: 0.5; stroke-opacity: 1; stroke: rgb(60, 116, 237); fill: none;"></path><path class="link" marker-end="" d="M1116,725.5C1207,725.5 1207,660.5 1298,660.5" style="stroke-width: 0.5; stroke-opacity: 1; stroke: rgb(230, 237, 253); fill: none;"></path><path class="link" marker-end="" d="M1116,725.5C1207,725.5 1207,689.5 1298,689.5" style="stroke-width: 0.5; stroke-opacity: 1; stroke: rgb(164, 190, 247); fill: none;"></path><path class="link" marker-end="" d="M1116,725.5C1207,725.5 1207,718.5 1298,718.5" style="stroke-width: 0.5; stroke-opacity: 1; stroke: rgb(42, 104, 236); fill: none;"></path><path class="link" marker-end="" d="M1116,725.5C1207,725.5 1207,747.5 1298,747.5" style="stroke-width: 0.5; stroke-opacity: 1; stroke: rgb(48, 108, 236); fill: none;"></path><path class="link" marker-end="" d="M1116,725.5C1207,725.5 1207,776.5 1298,776.5" style="stroke-width: 0.5; stroke-opacity: 1; stroke: rgb(199, 215, 250); fill: none;"></path><path class="link" marker-end="" d="M1116,778.5C1207,778.5 1207,544.5 1298,544.5" style="stroke-width: 0.5; stroke-opacity: 1; stroke: rgb(101, 145, 241); fill: none;"></path><path class="link" marker-end="" d="M1116,778.5C1207,778.5 1207,573.5 1298,573.5" style="stroke-width: 0.5; stroke-opacity: 1; stroke: rgb(87, 135, 240); fill: none;"></path><path class="link" marker-end="" d="M1116,778.5C1207,778.5 1207,602.5 1298,602.5" style="stroke-width: 0.5; stroke-opacity: 1; stroke: rgb(216, 227, 251); fill: none;"></path><path class="link" marker-end="" d="M1116,778.5C1207,778.5 1207,631.5 1298,631.5" style="stroke-width: 0.5; stroke-opacity: 1; stroke: rgb(129, 165, 243); fill: none;"></path><path class="link" marker-end="" d="M1116,778.5C1207,778.5 1207,660.5 1298,660.5" style="stroke-width: 0.5; stroke-opacity: 1; stroke: rgb(119, 158, 243); fill: none;"></path><path class="link" marker-end="" d="M1116,778.5C1207,778.5 1207,689.5 1298,689.5" style="stroke-width: 0.5; stroke-opacity: 1; stroke: rgb(63, 118, 237); fill: none;"></path><path class="link" marker-end="" d="M1116,778.5C1207,778.5 1207,718.5 1298,718.5" style="stroke-width: 0.5; stroke-opacity: 1; stroke: rgb(192, 210, 249); fill: none;"></path><path class="link" marker-end="" d="M1116,778.5C1207,778.5 1207,747.5 1298,747.5" style="stroke-width: 0.5; stroke-opacity: 1; stroke: rgb(211, 223, 251); fill: none;"></path><path class="link" marker-end="" d="M1116,778.5C1207,778.5 1207,776.5 1298,776.5" style="stroke-width: 0.5; stroke-opacity: 1; stroke: rgb(165, 191, 247); fill: none;"></path><path class="link" marker-end="" d="M1116,831.5C1207,831.5 1207,544.5 1298,544.5" style="stroke-width: 0.5; stroke-opacity: 1; stroke: rgb(234, 240, 253); fill: none;"></path><path class="link" marker-end="" d="M1116,831.5C1207,831.5 1207,573.5 1298,573.5" style="stroke-width: 0.5; stroke-opacity: 1; stroke: rgb(93, 139, 240); fill: none;"></path><path class="link" marker-end="" d="M1116,831.5C1207,831.5 1207,602.5 1298,602.5" style="stroke-width: 0.5; stroke-opacity: 1; stroke: rgb(40, 102, 235); fill: none;"></path><path class="link" marker-end="" d="M1116,831.5C1207,831.5 1207,631.5 1298,631.5" style="stroke-width: 0.5; stroke-opacity: 1; stroke: rgb(168, 193, 247); fill: none;"></path><path class="link" marker-end="" d="M1116,831.5C1207,831.5 1207,660.5 1298,660.5" style="stroke-width: 0.5; stroke-opacity: 1; stroke: rgb(210, 223, 251); fill: none;"></path><path class="link" marker-end="" d="M1116,831.5C1207,831.5 1207,689.5 1298,689.5" style="stroke-width: 0.5; stroke-opacity: 1; stroke: rgb(78, 129, 239); fill: none;"></path><path class="link" marker-end="" d="M1116,831.5C1207,831.5 1207,718.5 1298,718.5" style="stroke-width: 0.5; stroke-opacity: 1; stroke: rgb(163, 190, 247); fill: none;"></path><path class="link" marker-end="" d="M1116,831.5C1207,831.5 1207,747.5 1298,747.5" style="stroke-width: 0.5; stroke-opacity: 1; stroke: rgb(163, 189, 247); fill: none;"></path><path class="link" marker-end="" d="M1116,831.5C1207,831.5 1207,776.5 1298,776.5" style="stroke-width: 0.5; stroke-opacity: 1; stroke: rgb(143, 175, 245); fill: none;"></path><path class="link" marker-end="" d="M1116,884.5C1207,884.5 1207,544.5 1298,544.5" style="stroke-width: 0.5; stroke-opacity: 1; stroke: rgb(69, 122, 238); fill: none;"></path><path class="link" marker-end="" d="M1116,884.5C1207,884.5 1207,573.5 1298,573.5" style="stroke-width: 0.5; stroke-opacity: 1; stroke: rgb(227, 235, 252); fill: none;"></path><path class="link" marker-end="" d="M1116,884.5C1207,884.5 1207,602.5 1298,602.5" style="stroke-width: 0.5; stroke-opacity: 1; stroke: rgb(188, 207, 249); fill: none;"></path><path class="link" marker-end="" d="M1116,884.5C1207,884.5 1207,631.5 1298,631.5" style="stroke-width: 0.5; stroke-opacity: 1; stroke: rgb(157, 185, 246); fill: none;"></path><path class="link" marker-end="" d="M1116,884.5C1207,884.5 1207,660.5 1298,660.5" style="stroke-width: 0.5; stroke-opacity: 1; stroke: rgb(252, 253, 255); fill: none;"></path><path class="link" marker-end="" d="M1116,884.5C1207,884.5 1207,689.5 1298,689.5" style="stroke-width: 0.5; stroke-opacity: 1; stroke: rgb(54, 112, 237); fill: none;"></path><path class="link" marker-end="" d="M1116,884.5C1207,884.5 1207,718.5 1298,718.5" style="stroke-width: 0.5; stroke-opacity: 1; stroke: rgb(127, 164, 243); fill: none;"></path><path class="link" marker-end="" d="M1116,884.5C1207,884.5 1207,747.5 1298,747.5" style="stroke-width: 0.5; stroke-opacity: 1; stroke: rgb(227, 235, 252); fill: none;"></path><path class="link" marker-end="" d="M1116,884.5C1207,884.5 1207,776.5 1298,776.5" style="stroke-width: 0.5; stroke-opacity: 1; stroke: rgb(228, 236, 253); fill: none;"></path><path class="link" marker-end="" d="M1116,937.5C1207,937.5 1207,544.5 1298,544.5" style="stroke-width: 0.5; stroke-opacity: 1; stroke: rgb(45, 105, 236); fill: none;"></path><path class="link" marker-end="" d="M1116,937.5C1207,937.5 1207,573.5 1298,573.5" style="stroke-width: 0.5; stroke-opacity: 1; stroke: rgb(231, 238, 253); fill: none;"></path><path class="link" marker-end="" d="M1116,937.5C1207,937.5 1207,602.5 1298,602.5" style="stroke-width: 0.5; stroke-opacity: 1; stroke: rgb(228, 235, 252); fill: none;"></path><path class="link" marker-end="" d="M1116,937.5C1207,937.5 1207,631.5 1298,631.5" style="stroke-width: 0.5; stroke-opacity: 1; stroke: rgb(78, 129, 239); fill: none;"></path><path class="link" marker-end="" d="M1116,937.5C1207,937.5 1207,660.5 1298,660.5" style="stroke-width: 0.5; stroke-opacity: 1; stroke: rgb(62, 118, 237); fill: none;"></path><path class="link" marker-end="" d="M1116,937.5C1207,937.5 1207,689.5 1298,689.5" style="stroke-width: 0.5; stroke-opacity: 1; stroke: rgb(227, 235, 252); fill: none;"></path><path class="link" marker-end="" d="M1116,937.5C1207,937.5 1207,718.5 1298,718.5" style="stroke-width: 0.5; stroke-opacity: 1; stroke: rgb(244, 247, 254); fill: none;"></path><path class="link" marker-end="" d="M1116,937.5C1207,937.5 1207,747.5 1298,747.5" style="stroke-width: 0.5; stroke-opacity: 1; stroke: rgb(185, 205, 249); fill: none;"></path><path class="link" marker-end="" d="M1116,937.5C1207,937.5 1207,776.5 1298,776.5" style="stroke-width: 0.5; stroke-opacity: 1; stroke: rgb(135, 170, 244); fill: none;"></path><path class="link" marker-end="" d="M1298,515.5C1389,515.5 1389,646 1480,646" style="stroke-width: 0.5; stroke-opacity: 1; stroke: rgb(61, 117, 237); fill: none;"></path><path class="link" marker-end="" d="M1298,544.5C1389,544.5 1389,646 1480,646" style="stroke-width: 0.5; stroke-opacity: 1; stroke: rgb(77, 128, 239); fill: none;"></path><path class="link" marker-end="" d="M1298,573.5C1389,573.5 1389,646 1480,646" style="stroke-width: 0.5; stroke-opacity: 1; stroke: rgb(76, 127, 239); fill: none;"></path><path class="link" marker-end="" d="M1298,602.5C1389,602.5 1389,646 1480,646" style="stroke-width: 0.5; stroke-opacity: 1; stroke: rgb(158, 186, 246); fill: none;"></path><path class="link" marker-end="" d="M1298,631.5C1389,631.5 1389,646 1480,646" style="stroke-width: 0.5; stroke-opacity: 1; stroke: rgb(132, 168, 244); fill: none;"></path><path class="link" marker-end="" d="M1298,660.5C1389,660.5 1389,646 1480,646" style="stroke-width: 0.5; stroke-opacity: 1; stroke: rgb(126, 163, 243); fill: none;"></path><path class="link" marker-end="" d="M1298,689.5C1389,689.5 1389,646 1480,646" style="stroke-width: 0.5; stroke-opacity: 1; stroke: rgb(84, 133, 239); fill: none;"></path><path class="link" marker-end="" d="M1298,718.5C1389,718.5 1389,646 1480,646" style="stroke-width: 0.5; stroke-opacity: 1; stroke: rgb(218, 229, 252); fill: none;"></path><path class="link" marker-end="" d="M1298,747.5C1389,747.5 1389,646 1480,646" style="stroke-width: 0.5; stroke-opacity: 1; stroke: rgb(129, 165, 243); fill: none;"></path><path class="link" marker-end="" d="M1298,776.5C1389,776.5 1389,646 1480,646" style="stroke-width: 0.5; stroke-opacity: 1; stroke: rgb(239, 244, 254); fill: none;"></path><path class="link" marker-end="" d="M1116,354.5C1207,354.5 1207,515.5 1298,515.5" style="stroke-width: 0.5; stroke-opacity: 1; stroke: rgb(131, 166, 244); fill: none;"></path><path class="link" marker-end="" d="M1116,407.5C1207,407.5 1207,515.5 1298,515.5" style="stroke-width: 0.5; stroke-opacity: 1; stroke: rgb(78, 129, 239); fill: none;"></path><path class="link" marker-end="" d="M1116,460.5C1207,460.5 1207,515.5 1298,515.5" style="stroke-width: 0.5; stroke-opacity: 1; stroke: rgb(136, 170, 244); fill: none;"></path><path class="link" marker-end="" d="M1116,513.5C1207,513.5 1207,515.5 1298,515.5" style="stroke-width: 0.5; stroke-opacity: 1; stroke: rgb(82, 132, 239); fill: none;"></path><path class="link" marker-end="" d="M1116,566.5C1207,566.5 1207,515.5 1298,515.5" style="stroke-width: 0.5; stroke-opacity: 1; stroke: rgb(179, 201, 248); fill: none;"></path><path class="link" marker-end="" d="M1116,619.5C1207,619.5 1207,515.5 1298,515.5" style="stroke-width: 0.5; stroke-opacity: 1; stroke: rgb(167, 192, 247); fill: none;"></path><path class="link" marker-end="" d="M1116,672.5C1207,672.5 1207,515.5 1298,515.5" style="stroke-width: 0.5; stroke-opacity: 1; stroke: rgb(55, 113, 237); fill: none;"></path><path class="link" marker-end="" d="M1116,725.5C1207,725.5 1207,515.5 1298,515.5" style="stroke-width: 0.5; stroke-opacity: 1; stroke: rgb(216, 227, 251); fill: none;"></path><path class="link" marker-end="" d="M1116,778.5C1207,778.5 1207,515.5 1298,515.5" style="stroke-width: 0.5; stroke-opacity: 1; stroke: rgb(179, 201, 248); fill: none;"></path><path class="link" marker-end="" d="M1116,831.5C1207,831.5 1207,515.5 1298,515.5" style="stroke-width: 0.5; stroke-opacity: 1; stroke: rgb(120, 159, 243); fill: none;"></path><path class="link" marker-end="" d="M1116,884.5C1207,884.5 1207,515.5 1298,515.5" style="stroke-width: 0.5; stroke-opacity: 1; stroke: rgb(125, 162, 243); fill: none;"></path><path class="link" marker-end="" d="M1116,937.5C1207,937.5 1207,515.5 1298,515.5" style="stroke-width: 0.5; stroke-opacity: 1; stroke: rgb(240, 244, 254); fill: none;"></path><circle r="11" class="node" id="0_0" cx="1116" cy="354.5" style="fill: rgb(36, 99, 235); stroke: rgb(36, 99, 235);"></circle><circle r="11" class="node" id="0_1" cx="1116" cy="407.5" style="fill: rgb(36, 99, 235); stroke: rgb(36, 99, 235);"></circle><circle r="11" class="node" id="0_2" cx="1116" cy="460.5" style="fill: rgb(36, 99, 235); stroke: rgb(36, 99, 235);"></circle><circle r="11" class="node" id="0_3" cx="1116" cy="513.5" style="fill: rgb(36, 99, 235); stroke: rgb(36, 99, 235);"></circle><circle r="11" class="node" id="0_4" cx="1116" cy="566.5" style="fill: rgb(36, 99, 235); stroke: rgb(36, 99, 235);"></circle><circle r="11" class="node" id="0_5" cx="1116" cy="619.5" style="fill: rgb(36, 99, 235); stroke: rgb(36, 99, 235);"></circle><circle r="11" class="node" id="0_6" cx="1116" cy="672.5" style="fill: rgb(36, 99, 235); stroke: rgb(36, 99, 235);"></circle><circle r="11" class="node" id="0_7" cx="1116" cy="725.5" style="fill: rgb(36, 99, 235); stroke: rgb(36, 99, 235);"></circle><circle r="11" class="node" id="0_8" cx="1116" cy="778.5" style="fill: rgb(36, 99, 235); stroke: rgb(36, 99, 235);"></circle><circle r="11" class="node" id="0_9" cx="1116" cy="831.5" style="fill: rgb(36, 99, 235); stroke: rgb(36, 99, 235);"></circle><circle r="11" class="node" id="0_10" cx="1116" cy="884.5" style="fill: rgb(36, 99, 235); stroke: rgb(36, 99, 235);"></circle><circle r="11" class="node" id="0_11" cx="1116" cy="937.5" style="fill: rgb(36, 99, 235); stroke: rgb(36, 99, 235);"></circle><circle r="11" class="node" id="1_0" cx="1298" cy="515.5" style="fill: rgb(36, 99, 235); stroke: rgb(36, 99, 235);"></circle><circle r="11" class="node" id="1_1" cx="1298" cy="544.5" style="fill: rgb(36, 99, 235); stroke: rgb(36, 99, 235);"></circle><circle r="11" class="node" id="1_2" cx="1298" cy="573.5" style="fill: rgb(36, 99, 235); stroke: rgb(36, 99, 235);"></circle><circle r="11" class="node" id="1_3" cx="1298" cy="602.5" style="fill: rgb(36, 99, 235); stroke: rgb(36, 99, 235);"></circle><circle r="11" class="node" id="1_4" cx="1298" cy="631.5" style="fill: rgb(36, 99, 235); stroke: rgb(36, 99, 235);"></circle><circle r="11" class="node" id="1_5" cx="1298" cy="660.5" style="fill: rgb(36, 99, 235); stroke: rgb(36, 99, 235);"></circle><circle r="11" class="node" id="1_6" cx="1298" cy="689.5" style="fill: rgb(36, 99, 235); stroke: rgb(36, 99, 235);"></circle><circle r="11" class="node" id="1_7" cx="1298" cy="718.5" style="fill: rgb(36, 99, 235); stroke: rgb(36, 99, 235);"></circle><circle r="11" class="node" id="1_8" cx="1298" cy="747.5" style="fill: rgb(36, 99, 235); stroke: rgb(36, 99, 235);"></circle><circle r="11" class="node" id="1_9" cx="1298" cy="776.5" style="fill: rgb(36, 99, 235); stroke: rgb(36, 99, 235);"></circle><circle r="11" class="node" id="2_0" cx="1480" cy="646" style="fill: rgb(36, 99, 235); stroke: rgb(36, 99, 235);"></circle><text class="text" dy=".35em" x="1081" y="979.5" style="font-size: 12px;"></text><text class="text" dy=".35em" x="1263" y="979.5" style="font-size: 12px;"></text><text class="text" dy=".35em" x="1445" y="979.5" style="font-size: 12px;"></text></g><defs><marker id="arrow" viewBox="0 -5 10 10" markerWidth="7" markerHeight="7" orient="auto" refX="42.8"><path d="M0,-5L10,0L0,5" style="stroke: rgb(80, 80, 80); fill: rgb(36, 99, 235);"></path></marker></defs></svg>